<?xml version="1.0" standalone="no"?>
<!DOCTYPE svg PUBLIC "-//W3C//DTD SVG 20010904//EN"
 "http://www.w3.org/TR/2001/REC-SVG-20010904/DTD/svg10.dtd">
<svg version="1.0" xmlns="http://www.w3.org/2000/svg"
 width="512.000000pt" height="512.000000pt" viewBox="0 0 512.000000 512.000000"
 preserveAspectRatio="xMidYMid meet">
<metadata>
Created by potrace 1.14, written by Peter Selinger 2001-2017
</metadata>
<g transform="translate(0.000000,512.000000) scale(0.100000,-0.100000)"
fill="#000000" stroke="none">
<path d="M2355 5110 c-321 -27 -628 -112 -920 -255 -766 -374 -1287 -1098
-1411 -1960 -24 -165 -24 -505 0 -670 40 -280 122 -547 241 -790 378 -769
1097 -1287 1960 -1411 165 -24 505 -24 670 0 279 40 546 121 790 241 767 376
1287 1098 1411 1960 24 165 24 505 0 670 -67 465 -254 906 -536 1260 -399 501
-994 842 -1633 936 -152 22 -429 31 -572 19z m370 -1031 c166 -51 308 -189
369 -358 18 -50 21 -88 26 -361 l5 -305 68 -3 67 -3 0 83 c0 91 13 122 56 138
37 14 84 -7 100 -46 17 -42 20 -543 3 -692 -38 -345 -267 -630 -592 -736 -41
-13 -99 -27 -130 -31 l-57 -7 0 -249 0 -248 256 -3 256 -3 29 -33 c30 -34 37
-70 17 -90 -17 -17 -1259 -17 -1276 0 -20 20 -13 56 17 90 l29 33 256 3 256 3
0 248 0 249 -57 7 c-31 4 -89 18 -130 31 -325 106 -554 391 -592 736 -15 133
-14 645 0 688 14 40 65 65 103 51 43 -17 56 -48 56 -139 l0 -83 68 3 67 3 6
305 c6 337 9 356 74 465 136 227 401 330 650 254z m-1980 -1020 c48 -24 50
-35 53 -369 2 -173 1 -329 -3 -346 -15 -83 -113 -113 -177 -55 l-33 29 0 346
0 345 29 30 c39 41 77 46 131 20z m773 1 c18 -11 37 -32 42 -46 6 -15 10 -203
10 -464 l0 -438 -26 -31 c-33 -40 -85 -50 -129 -26 -61 32 -60 26 -60 505 0
478 0 475 59 504 42 21 65 20 104 -4z m2187 5 c61 -29 60 -25 60 -505 0 -479
1 -473 -60 -505 -44 -24 -96 -14 -129 26 l-26 31 0 444 c0 296 4 452 11 465
13 24 67 59 92 59 11 0 34 -7 52 -15z m800 -26 l30 -29 0 -346 0 -346 -33 -29
c-59 -53 -145 -34 -173 38 -10 27 -13 612 -3 662 18 86 114 113 179 50z
m-3391 -353 c67 -28 66 -24 66 -393 0 -227 -4 -340 -11 -357 -29 -62 -131 -70
-173 -13 -20 27 -21 42 -24 340 -2 172 0 326 3 343 6 37 47 81 78 87 12 2 23
5 25 6 1 0 18 -5 36 -13z m2983 -8 c51 -25 54 -51 51 -402 -3 -311 -4 -326
-24 -353 -42 -57 -144 -49 -173 13 -7 17 -11 130 -11 357 0 367 0 365 64 393
31 13 53 11 93 -8z"/>
<path d="M1860 2760 c0 -279 25 -386 122 -532 273 -409 883 -409 1156 0 97
146 122 253 122 532 l0 200 -64 0 -63 0 -7 -52 c-3 -29 -6 -121 -6 -203 0
-103 -5 -170 -15 -209 -48 -184 -194 -338 -377 -397 -250 -81 -539 37 -662
271 -54 102 -66 163 -66 335 0 82 -3 174 -6 203 l-7 52 -63 0 -64 0 0 -200z"/>
</g>
</svg>
